Coordinates
version=1
nRows=13
nColumns=38
inDegrees=yes

Units are S.I. units (second, meters, Newtons, ...)
Angles are in degrees.

endheader
time	pelvis_tilt	pelvis_list	pelvis_rotation	pelvis_tx	pelvis_ty	pelvis_tz	hip_flexion_r	hip_adduction_r	hip_rotation_r	knee_angle_r	ankle_angle_r	subtalar_angle_r	mtp_angle_r	hip_flexion_l	hip_adduction_l	hip_rotation_l	knee_angle_l	ankle_angle_l	subtalar_angle_l	mtp_angle_l	lumbar_extension	lumbar_bending	lumbar_rotation	arm_flex_r	arm_add_r	arm_rot_r	elbow_flex_r	pro_sup_r	wrist_flex_r	wrist_dev_r	arm_flex_l	arm_add_l	arm_rot_l	elbow_flex_l	pro_sup_l	wrist_flex_l	wrist_dev_l
      1.25000000	      1.26815071	     -1.22399658	      5.35888941	      0.04493825	      0.87915319	     -0.20007146	     27.86150084	      1.84967074	     -5.60588574	    -29.19243750	     -1.11774708	    -13.95786640	      0.00000000	     -2.09995193	     -5.58081663	     -5.91873360	    -55.75100961	    -13.26026676	     -9.85984141	      0.00000000	     -3.66681622	      2.97460773	     -4.86011476	     -7.82985288	     -9.18928568	     33.14731453	     19.73649838	     42.98539234	      0.00000000	      0.00000000	     -5.95843360	    -16.07070342	      4.30178975	     72.37536109	     42.98539234	      0.00000000	      0.00000000
      1.26000000	      1.55461153	     -2.08550233	      4.87910230	      0.05914772	      0.88039926	     -0.19807027	     26.83569223	      3.18020074	     -5.47676653	    -29.47097420	     -0.27635946	    -14.40312072	      0.00000000	     -0.24854584	     -6.60979992	     -6.23810319	    -58.97717246	    -11.87326013	    -11.91656189	      0.00000000	     -4.14364021	      4.01941065	     -4.07391242	     -6.77911342	     -9.51121261	     33.38983078	     19.71892600	     43.08302657	      0.00000000	      0.00000000	     -6.26617136	    -15.39353922	      4.41632694	     70.34249881	     43.08302657	      0.00000000	      0.00000000
      1.27000000	      1.67415315	     -2.72953726	      4.40480169	      0.07289814	      0.88153604	     -0.19623646	     25.90359116	      4.28399750	     -5.09760417	    -29.66400474	      0.92409462	    -14.32226444	      0.00000000	      1.75616993	     -7.23564140	     -6.50173036	    -61.83429567	    -10.97807187	    -14.19476003	      0.00000000	     -4.53450503	      4.76737192	     -3.35319543	     -5.71951299	     -9.82665302	     33.39602561	     19.92216941	     43.09438516	      0.00000000	      0.00000000	     -6.90508087	    -14.93534289	      4.61519297	     69.76404443	     43.09438516	      0.00000000	      0.00000000
      1.28000000	      1.63985838	     -3.35838320	      4.08135473	      0.08633140	      0.88285850	     -0.19475516	     25.00198629	      5.21268297	     -5.03369133	    -29.59015516	      1.85640435	    -14.24723179	      0.00000000	      3.99837971	     -7.89993483	     -6.73715880	    -64.37409135	    -10.22604234	    -16.76561161	      0.00000000	     -4.70762369	      5.52033420	     -2.70851747	     -4.60137862	    -10.18158899	     33.45659367	     20.20378021	     43.10909942	      0.00000000	      0.00000000	     -7.49489881	    -14.39429710	      4.78003615	     68.59594638	     43.10909942	      0.00000000	      0.00000000
      1.29000000	      1.53043033	     -3.68329326	      3.85476801	      0.09934467	      0.88457588	     -0.19354102	     24.12852948	      5.80671748	     -4.92157086	    -29.44367243	      2.69549867	    -14.25550386	      0.00000000	      6.37468180	     -8.30913773	     -6.93429598	    -66.60318209	    -10.04708427	    -18.54377747	      0.00000000	     -4.85229119	      5.93446474	     -1.92874726	     -3.67021673	    -10.77290332	     35.56794658	     20.68780919	     43.41559248	      0.00000000	      0.00000000	     -5.91032391	    -14.36940057	      8.14400902	     61.74829945	     43.41559248	      0.00000000	      0.00000000
      1.30000000	      1.35193089	     -3.80145941	      3.71349214	      0.11209087	      0.88641080	     -0.19254235	     23.30957312	      6.16440301	     -4.68947144	    -29.27950918	      3.49529046	    -14.29464039	      0.00000000	      8.85614302	     -8.31349042	     -6.85992065	    -68.51438364	     -9.37746108	    -19.47475228	      0.00000000	     -4.97127220	      6.07618362	     -1.55817905	     -2.40290359	    -10.96114812	     35.67483059	     20.97891842	     43.43693693	      0.00000000	      0.00000000	     -6.48234118	    -13.88644246	      8.20576570	     60.52125395	     43.43693693	      0.00000000	      0.00000000
      1.31000000	      1.26134919	     -3.65851542	      3.75382591	      0.12465310	      0.88871028	     -0.19193606	     22.30024613	      6.17514965	     -4.51795542	    -28.98954248	      4.36899278	    -14.22329812	      0.00000000	     11.20038346	     -7.92134050	     -6.66177730	    -69.97427152	     -8.32985747	    -19.57004605	      0.00000000	     -5.17130286	      5.93701019	     -1.19383584	     -1.31042795	    -11.23953776	     36.42681647	     21.46592830	     43.51691139	      0.00000000	      0.00000000	     -5.66491448	    -13.10493236	      8.60967825	     55.62663005	     43.51691139	      0.00000000	      0.00000000
      1.32000000	      1.33092744	     -3.15919482	      3.66868130	      0.13782626	      0.89167249	     -0.19134894	     20.98149746	      5.87762983	     -4.08770475	    -28.60656887	      5.28359434	    -14.13685469	      0.00000000	     13.19541520	     -6.87996845	     -6.33493611	    -70.84926610	     -7.66140167	    -19.93943482	      0.00000000	     -5.47410772	      5.40818845	     -0.81158293	      0.03427644	    -11.46649483	     38.75511219	     21.31102970	     43.79663720	      0.00000000	      0.00000000	     -4.66164688	    -13.73259161	     14.01354924	     50.51258203	     43.79663720	      0.00000000	      0.00000000
      1.33000000	      1.34257654	     -2.77056297	      3.78705058	      0.15061188	      0.89442525	     -0.19100207	     19.67803113	      5.62074920	     -3.84807359	    -28.04302838	      6.09476452	    -14.13102601	      0.00000000	     15.24624018	     -5.85915582	     -5.81224517	    -71.39029262	     -7.46746996	    -20.04533002	      0.00000000	     -5.73566225	      4.96069995	     -0.81073555	      1.34643006	    -11.50497654	     38.80790749	     21.62781852	     43.80771638	      0.00000000	      0.00000000	     -5.38684993	    -13.47692085	     14.07161589	     49.64522600	     43.80771638	      0.00000000	      0.00000000
      1.34000000	      1.38025323	     -2.45994722	      3.98212113	      0.16354831	      0.89728018	     -0.19075715	     18.27112404	      5.35019165	     -4.06654566	    -27.31019184	      6.83547411	    -13.85436504	      0.00000000	     17.26442445	     -5.29578166	     -5.70439950	    -71.71972556	     -4.49720469	    -18.22821876	      0.00000000	     -5.93145351	      4.63618947	     -0.73329651	      2.71989076	    -11.76764646	     41.44683093	     21.56506571	     44.11329280	      0.00000000	      0.00000000	     -3.85580927	    -13.44780723	     19.56358722	     42.50946811	     44.11329280	      0.00000000	      0.00000000
      1.35000000	      1.32273757	     -2.17255262	      4.16656478	      0.17640028	      0.89991713	     -0.19062793	     16.80703620	      5.16209904	     -3.76438502	    -26.32522783	      7.49580401	    -13.69467324	      0.00000000	     19.17744925	     -4.29767035	     -5.20816856	    -71.42689815	     -4.01062213	    -18.20122889	      0.00000000	     -6.02290814	      4.29617625	     -0.56317091	      3.76838721	    -11.86331558	     41.42076256	     21.78116320	     44.11663425	      0.00000000	      0.00000000	     -4.52898899	    -13.20288889	     19.63362889	     42.12639158	     44.11663425	      0.00000000	      0.00000000
      1.36000000	      1.49802343	     -1.85328768	      4.49242820	      0.18969276	      0.90287716	     -0.19079879	     15.08829894	      4.82516112	     -4.22557521	    -25.36341334	      8.29360918	    -13.09058943	      0.00000000	     20.68987268	     -3.39257838	     -4.84983353	    -70.70936228	     -2.92604282	    -17.94850284	      0.00000000	     -6.29712448	      4.00473995	     -0.98554920	      5.32199929	    -12.12627829	     43.55959786	     22.22980717	     44.36043403	      0.00000000	      0.00000000	     -3.73047909	    -12.81213906	     24.56984531	     35.39406808	     44.36043403	      0.00000000	      0.00000000
      1.37000000	      1.42444220	     -1.52660541	      4.67154422	      0.20272855	      0.90526095	     -0.19085139	     13.53480519	      4.57714494	     -4.09207043	    -24.12414628	      8.80024720	    -12.97062608	      0.00000000	     22.53404797	     -2.57260542	     -4.61217235	    -69.80884571	     -2.32510916	    -17.48109602	      0.00000000	     -6.31271053	      3.65553738	     -1.00947709	      6.40524757	    -12.16461556	     43.53640768	     22.48176154	     44.36409661	      0.00000000	      0.00000000	     -4.67494805	    -12.57697512	     24.62755701	     34.91655651	     44.36409661	      0.00000000	      0.00000000
